<svg width="38" height="38" viewBox="0 0 38 38" fill="none" xmlns="http://www.w3.org/2000/svg">
<path d="M26.1173 23.3788C26.0147 23.4814 25.9108 23.584 25.8082 23.6841C25.1153 24.3668 24.4719 25.0065 23.9538 25.6145C29.7957 26.3023 32.9332 28.1048 32.9332 29.1333C32.9332 30.424 28.0147 32.9333 18.9999 32.9333C9.985 32.9333 5.06654 30.424 5.06654 29.1333C5.06654 28.1048 8.20407 26.3023 14.0459 25.6145C13.5266 25.0065 12.8831 24.3668 12.1915 23.6841C12.0902 23.584 11.9863 23.4814 11.8825 23.3788C6.61947 24.2782 2.5332 26.2149 2.5332 29.1333C2.5332 33.2905 10.8172 35.4666 18.9999 35.4666C27.1825 35.4666 35.4665 33.2905 35.4665 29.1333C35.4665 26.2149 31.3803 24.2782 26.1173 23.3788Z" fill="#049D66"/>
<path d="M18.9995 2.53333C13.4034 2.53333 8.86621 7.07052 8.86621 12.6667C8.86621 20.2667 17.7329 22.8 17.7329 27.8667C17.7329 28.5659 18.3003 29.1333 18.9995 29.1333C19.6987 29.1333 20.2662 28.5659 20.2662 27.8667C20.2662 22.8 29.1329 20.2667 29.1329 12.6667C29.1329 7.07052 24.5957 2.53333 18.9995 2.53333ZM18.9995 15.2C17.5999 15.2 16.4662 14.0663 16.4662 12.6667C16.4662 11.267 17.5999 10.1333 18.9995 10.1333C20.3992 10.1333 21.5329 11.267 21.5329 12.6667C21.5329 14.0663 20.3992 15.2 18.9995 15.2Z" fill="#049D66"/>
</svg>
