<svg width="35" height="35" viewBox="0 0 35 35" fill="none" xmlns="http://www.w3.org/2000/svg">
<g clip-path="url(#clip0_77_300)">
<path d="M17.6263 34.2858C17.4167 34.2858 17.2102 34.2173 17.0398 34.0873C16.8005 33.9042 16.6602 33.6204 16.6602 33.3192V5.71922C16.6602 5.28345 16.9521 4.90153 17.3725 4.78692L33.4559 0.400377C33.7463 0.320761 34.0571 0.38153 34.2971 0.564607C34.5363 0.7473 34.6767 1.03115 34.6767 1.33268V28.9323C34.6767 29.3681 34.3848 29.75 33.9644 29.8646L17.8805 34.2515C17.7967 34.2742 17.7113 34.2858 17.6263 34.2858ZM18.5928 6.4573V32.0538L32.744 28.1942V2.59768L18.5928 6.4573Z" fill="#9E0059"/>
<path d="M17.6261 34.285C17.5411 34.285 17.4558 34.2738 17.3719 34.2508L1.28653 29.8642C0.866142 29.7496 0.574219 29.3677 0.574219 28.9319V1.33268C0.574219 1.03153 0.714603 0.747685 0.953834 0.564608C1.19345 0.381531 1.50422 0.320377 1.79499 0.400377L17.8804 4.78653C18.3008 4.90115 18.5927 5.28307 18.5927 5.71884V33.3181C18.5927 33.6192 18.4523 33.9031 18.2131 34.0861C18.0423 34.2165 17.8358 34.285 17.6261 34.285ZM2.5073 28.1942L16.66 32.0531V6.4573L2.5073 2.59807V28.1942Z" fill="#9E0059"/>
<path d="M14.154 17.0477C14.0717 17.0477 13.9878 17.0373 13.9051 17.0146L5.31398 14.7304C4.79821 14.5934 4.4909 14.0638 4.62859 13.5481C4.76551 13.0323 5.29705 12.7254 5.81051 12.8623L14.4017 15.1465C14.9174 15.2835 15.2247 15.8131 15.0871 16.3288C14.9721 16.7619 14.5813 17.0477 14.154 17.0477Z" fill="#9E0059"/>
<path d="M14.1538 23.425C14.0715 23.425 13.9881 23.4146 13.905 23.3923L5.31385 21.1084C4.79808 20.9719 4.49115 20.4423 4.62846 19.9265C4.76577 19.4108 5.29423 19.1034 5.81038 19.2411L14.4015 21.5246C14.9173 21.6615 15.2242 22.1908 15.0869 22.7065C14.9719 23.1392 14.5812 23.425 14.1538 23.425Z" fill="#9E0059"/>
<path d="M21.0977 11.7665C20.6708 11.7665 20.2796 11.4808 20.1646 11.0484C20.0273 10.5327 20.3338 10.0034 20.85 9.86614L29.4415 7.58037C29.9562 7.44345 30.4865 7.74999 30.6235 8.26576C30.7608 8.78152 30.4542 9.31076 29.9381 9.44806L21.3465 11.7338C21.2635 11.7561 21.1796 11.7665 21.0977 11.7665Z" fill="#9E0059"/>
<path d="M21.0975 17.4127C20.6702 17.4127 20.2795 17.1265 20.1645 16.6942C20.0275 16.1785 20.3341 15.6492 20.8498 15.5119L29.4414 13.2285C29.9579 13.0919 30.4864 13.3985 30.6233 13.9142C30.7602 14.43 30.4537 14.9592 29.9379 15.0965L21.3464 17.38C21.2629 17.4023 21.1795 17.4127 21.0975 17.4127Z" fill="#9E0059"/>
<path d="M21.0977 23.0608C20.6704 23.0608 20.2796 22.775 20.1646 22.3427C20.0273 21.8269 20.3338 21.2973 20.85 21.1604L29.4415 18.875C29.9558 18.7377 30.4865 19.0446 30.6235 19.5604C30.7608 20.0761 30.4542 20.6058 29.9381 20.7427L21.3465 23.0281C21.2635 23.0504 21.1796 23.0608 21.0977 23.0608Z" fill="#9E0059"/>
<path d="M28.0987 26.8458C27.6718 26.8458 27.2806 26.5604 27.1656 26.1277C27.0283 25.6119 27.3348 25.0827 27.8506 24.9454L29.4406 24.5223C29.9583 24.3869 30.486 24.6919 30.6229 25.2073C30.7602 25.7234 30.4537 26.2527 29.9379 26.3896L28.3479 26.8131C28.2644 26.835 28.181 26.8458 28.0987 26.8458Z" fill="#9E0059"/>
<path d="M21.0977 28.7088C20.6708 28.7088 20.2796 28.4235 20.1646 27.9908C20.0273 27.475 20.3339 26.9458 20.8496 26.8085L24.0292 25.9619C24.5458 25.8246 25.0746 26.1308 25.2115 26.6469C25.3489 27.1623 25.0423 27.6919 24.5265 27.8292L21.3469 28.6758C21.2635 28.6977 21.1796 28.7088 21.0977 28.7088Z" fill="#9E0059"/>
</g>
<defs>
<clipPath id="clip0_77_300">
<rect width="35" height="35" fill="white"/>
</clipPath>
</defs>
</svg>
